<svg data-v-0dd9719b="" version="1.0" xmlns="http://www.w3.org/2000/svg" xmlns:xlink="http://www.w3.org/1999/xlink" width="100%" height="100%" viewBox="0 0 340.000000 250.000000" preserveAspectRatio="xMidYMid meet" color-interpolation-filters="sRGB" style="margin: auto;"> <rect data-v-0dd9719b="" x="0" y="0" width="100%" height="100%" fill="#fff" fill-opacity="1" class="background"></rect> <rect data-v-0dd9719b="" x="0" y="0" width="100%" height="100%" fill="url(#watermark)" fill-opacity="1" class="watermarklayer"></rect> <g data-v-0dd9719b="" fill="#2959a4" class="icon-text-wrapper icon-svg-group iconsvg" transform="translate(53.345001220703125,94.98348999023438)"><g class="iconsvg-imagesvg" transform="translate(0,0)"><g><rect fill="#2959a4" fill-opacity="0" stroke-width="2" x="0" y="0" width="60" height="60.033018159987996" class="image-rect"></rect> <svg x="0" y="0" width="60" height="60.033018159987996" filtersec="colorsb7548737778" class="image-svg-svg primary" style="overflow: visible;"><svg version="1.1" id="图层_1" xmlns="http://www.w3.org/2000/svg" xmlns:xlink="http://www.w3.org/1999/xlink" x="0px" y="0px" viewBox="1 0.3099999725818634 91 91.05000305175781" enable-background="new 0 0 93 92" xml:space="preserve">
<g>
	<path fill="#2959A4" d="M46.65,71.11c-11.84,0.01-21.35-7.35-24.35-17.62c-4.17-14.23,4.49-28.48,18.15-31.96
		c8.34-2.13,15.96-0.45,22.58,5.1c4.83,4.05,7.6,9.32,8.44,15.58c1.61,12.02-5.58,23.35-16.7,27.38
		C51.94,70.62,49.02,71.15,46.65,71.11z"></path>
	<path fill="#171719" d="M92,45.53c-0.58,0.82-16.71,17.02-18.24,18.33c-0.16-0.37,0.12-0.58,0.27-0.81
		c2.01-3.2,3.46-6.63,4.29-10.32c0.42-1.85,0.69-3.72,0.79-5.62c0.33-6.58-1.17-12.7-4.51-18.38c-0.17-0.29-0.49-0.54-0.37-0.96
		C75.16,28.45,91.37,44.64,92,45.53z"></path>
	<path fill="#171719" d="M64.54,18.24c-12.08-6.99-24.07-6.74-35.95,0.42c-0.04-0.04-0.09-0.07-0.09-0.1c0-0.04,0.03-0.09,0.06-0.12
		C34.51,12.47,40.47,6.5,46.44,0.53c0.09-0.09,0.22-0.13,0.38-0.22c0.14,0.1,0.3,0.19,0.42,0.31c5.81,5.8,11.62,11.6,17.43,17.4
		C64.63,18.09,64.58,18.17,64.54,18.24z"></path>
	<path fill="#171719" d="M46.32,91.36c-5.9-5.88-11.7-11.66-17.52-17.46c0.3-0.19,0.53,0.12,0.76,0.26
		c2.58,1.52,5.32,2.67,8.22,3.39c8.87,2.18,17.26,0.92,25.14-3.68c0.46-0.27,0.92-0.56,1.37-0.84c0.24,0.23,0.01,0.34-0.09,0.45
		c-0.21,0.24-0.44,0.45-0.66,0.68C58.14,79.58,52.72,85,47.3,90.42C46.98,90.74,46.65,91.05,46.32,91.36z"></path>
	<path fill="#171719" d="M18.72,63.77C12.69,57.75,6.88,51.96,1,46.1c0.12-0.42,0.56-0.7,0.9-1.04c5.39-5.4,10.78-10.79,16.17-16.18
		c0.35-0.35,0.71-0.69,1.18-1.14c0.02,0.58-0.29,0.86-0.47,1.16c-1.9,3.05-3.29,6.32-4.11,9.82c-1.93,8.26-0.85,16.12,3.24,23.56
		C18.14,62.69,18.37,63.12,18.72,63.77z"></path>
</g>
</svg></svg> <!----></g></g> <g transform="translate(67,5.771511077880859)"><g data-gra="path-name" fill-rule="" class="tp-name iconsvg-namesvg"><g transform="scale(1)"><g><path d="M11.17-27.42L35.55-27.42 35.55-46.46 41.89-46.46 41.89 0 35.55 0 35.55-21.58 11.17-21.58 11.17 0 4.82 0 4.82-46.46 11.17-46.46 11.17-27.42ZM82.27 0L77.7-13.46 58.91-13.46 54.08 0 47.73 0 65.25-46.46 72.36-46.46 89.12 0 82.27 0ZM68.3-39.61L60.94-19.04 75.41-19.04 68.55-39.61 68.3-39.61ZM128.73-33.01L128.73-33.01 122.89-33.01Q122.38-41.89 111.21-42.4L111.21-42.4Q100.8-42.15 100.8-34.28L100.8-34.28Q100.8-29.2 106.39-28.44L106.39-28.44 119.59-25.39Q130-22.85 130-12.7L130-12.7Q129.75 0.25 111.72 0.76L111.72 0.76Q101.82 0.76 97.75-3.3L97.75-3.3Q92.68-7.11 92.93-14.98L92.93-14.98 99.02-14.98Q99.28-4.32 111.72-4.06L111.72-4.06Q123.91-4.32 124.16-11.93L124.16-11.93Q125.18-18.28 114-20.31L114-20.31 104.36-22.34Q94.45-25.14 94.45-33.52L94.45-33.52Q95.21-47.23 110.7-47.73L110.7-47.73Q128.22-47.73 128.73-33.01ZM142.44-5.59L171.13-5.59 171.13 0 134.57 0 134.57-5.08 163.01-41.13 136.6-41.13 136.6-46.46 171.13-46.46 171.13-41.13 142.44-5.59Z" transform="translate(-4.820000171661377, 47.72999954223633)"></path></g> <!----> <!----> <!----> <!----> <!----> <!----> <!----></g></g> <!----></g></g><defs v-gra="od"></defs></svg>